<svg xmlns="http://www.w3.org/2000/svg" width="572.86195" height="457.17619" viewBox="0 0 572.86195 457.17619" xmlns:xlink="http://www.w3.org/1999/xlink"><g><g><polygon points="458.34288 450.53314 449.083 450.53222 444.67803 414.81515 458.34477 414.81609 458.34288 450.53314" fill="#ffb6b6"/><path d="M426.6174,450.32307h0c-.2883,.48556-.44045,2.05281-.44045,2.61751h0c0,1.73573,1.40709,3.14282,3.14281,3.14282h28.67676c1.18412,0,2.14404-.95992,2.14404-2.14404v-1.19391s1.41863-3.58829-1.50208-8.01107c0,0-3.63002,3.46312-9.05418-1.96104l-1.59954-2.89766-11.57846,8.46786-6.41777,.78996c-1.40405,.17283-2.64891-.02683-3.37114,1.18957Z" fill="#2f2e41"/></g><g><polygon points="416.24202 450.53314 406.98214 450.53222 402.57717 414.81515 416.2439 414.81609 416.24202 450.53314" fill="#ffb6b6"/><path d="M384.51654,450.32307h0c-.2883,.48556-.44045,2.05281-.44045,2.61751h0c0,1.73573,1.40709,3.14282,3.14281,3.14282h28.67676c1.18412,0,2.14404-.95992,2.14404-2.14404v-1.19391s1.41863-3.58829-1.50208-8.01107c0,0-3.63002,3.46312-9.05418-1.96104l-1.59954-2.89766-11.57846,8.46786-6.41777,.78996c-1.40405,.17283-2.64891-.02683-3.37114,1.18957Z" fill="#2f2e41"/></g><polygon points="473.20269 227.54286 408.76259 229.26126 402.19342 244.72688 394.15617 345.25343 401.02978 433.75117 421.09585 433.75117 421.09585 350.22598 436.25703 298.85656 442.27144 431.17356 462.98699 433.75117 471.48429 342.67583 479.2171 255.8965 473.20269 227.54286" fill="#2f2e41"/><path d="M450.30869,112.40988l-22.33923,.8592-2.5776,10.31042s-27.49444,7.73281-25.77604,18.04323,10.31042,55.84808,10.31042,55.84808c0,0-9.45121,29.21284-3.43681,32.64965s67.99191,0,67.99191,0c0,0,5.0402-12.88802,2.46259-14.60642s7.73281-84.20173,6.01441-85.92013c-1.7184-1.7184-30.07205-10.31042-30.07205-10.31042l-2.5776-6.87361Z" fill="#6c63ff"/><g><polygon points="494.12796 198.33001 495.84636 210.35883 476.94393 253.3189 467.49272 248.16369 477.80314 207.78123 479.52154 192.3156 494.12796 198.33001" fill="#ffb6b6"/><path d="M476.08473,130.45311s9.45121-4.29601,16.32482,11.16962c6.87361,15.46562,5.15521,48.97447,5.15521,48.97447,0,0,2.5776,2.5776,.8592,4.29601s-4.98409-2.3251-1.7184,3.13913c1.7184,2.87528,6.87361,2.01608,1.7184,2.87528-5.15521,.8592-3.34862-1.54204-1.7184,1.7184,.8592,1.7184,4.29601,1.7184,.8592,2.5776-3.43681,.8592-20.72964-.61572-20.72964-.61572,0,0-5.9056-2.82109-2.4688-4.53949s5.15521-2.05667,3.43681-2.74674c-1.7184-.69007-6.01441-.69007-3.43681-3.26767s4.29601-2.5776,2.5776-2.5776-3.65226-4.1404-3.65226-4.1404l2.79305-56.86289Z" fill="#6c63ff"/><ellipse cx="469.12994" cy="258.27791" rx="11.96351" ry="7.10333" transform="translate(75.51271 621.39752) rotate(-71.52698)" fill="#ffb6b6"/></g><g><polygon points="374.43616 194.26023 367.60122 204.30657 324.68807 223.31528 321.17769 213.13791 356.00517 190.24479 367.69532 179.97451 374.43616 194.26023" fill="#ffb6b6"/><path d="M406.83722,131.94648s9.87838,3.19353,4.53717,19.2529c-5.34121,16.05937-29.18847,39.66243-29.18847,39.66243,0,0,.16795,3.64141-2.25965,3.75338s-2.11632-5.07626-3.38486,1.16179c-.66751,3.28247,3.72077,6.12103-.66751,3.28247-4.38828-2.83856-1.43543-3.39569-2.42761,.11197-.52292,1.8487,2.01665,4.16434-1.10183,2.48359-3.11849-1.68074-14.90301-14.42211-14.90301-14.42211,0,0-2.46308-6.06366,1.23432-5.01781s5.1951,1.95371,4.39026,.28598c-.80484-1.66773-3.97931-4.56228-.3379-4.73024s4.9112,.98986,3.64141-.16795,.09092-5.52029,.09092-5.52029l40.37675-40.13611Z" fill="#6c63ff"/><ellipse cx="315.57277" cy="221.71478" rx="11.96351" ry="7.10333" transform="translate(-68.04105 181.91461) rotate(-29.16779)" fill="#ffb6b6"/></g><circle cx="440.11331" cy="87.57593" r="20.63413" fill="#ffb6b6"/><path d="M423.63148,70.97927c1.04992-2.9778,3.96271-4.78437,7.11945-4.714,.13388,.00295,.26748,.00171,.39989-.00373,1.58974-.065,3.11562-.60797,4.67447-.92651,2.90524-.59372,5.96856-.39494,8.77271,.5692,.87162,.29971,1.74432,.67658,2.66603,.67668,.9217,.00013,1.92568-.50528,2.15048-1.39911,.05336,.80926,.10658,1.61847,.1598,2.42768,.29999-.65496,.59985-1.30997,.89985-1.96496l.60065,2.61205,1.9244-2.18301c-.17209,.9622,.38888,1.93197,1.1484,2.54714,.75951,.61521,1.6976,.9555,2.59684,1.33877,3.88098,1.65429,7.52502,4.5832,8.64327,8.65119,.70654,2.57013,.33698,5.29783-.03742,7.93684-.33088,2.33301-.69072,4.74665-1.95886,6.73262-.81292,1.27312-1.98466,2.34439-2.47962,3.77157-.46135,1.33024-.28659,2.85326-.94303,4.09893-.65921,1.25118-2.0201,1.95907-3.352,2.43444-1.3318,.47556-2.74766,.81184-3.89466,1.63915-1.14688,.82743-2.47808,3.21079-4.97705,3.08253l-.80654-1.51525c-.82972-.67602,2.24083-.14007,2.27287-1.20982,.03204-1.06974-3.69454-1.73065-3.16642-2.66151,.80997-1.42739,1.9058-2.66969,2.81853-4.0338,1.06741-1.59528,1.90683-3.45921,1.53852-5.40628-.14324-.75741-.49772-1.47288-1.03774-2.02306-1.55655-1.58609-3.29215-.88894-4.97886-.66206-1.16254,.15652-2.55103-.02417-3.15474-1.03003-.70614-1.17679,.08093-2.67382-.01535-4.04283-.10204-1.45063-1.20104-2.64013-2.39705-3.46715-1.19617-.827-2.55427-1.42953-3.63026-2.40767-1.07596-.97821-.90578-.47086-.43668-1.8473-8,6-6.81789-4.35984-12.18885-3.06488,.25599-1.34312,.61438-2.66645,1.06899-3.95584Z" fill="#2f2e41"/></g><path d="M325.50421,439.92346c-2.10236,1.09814-4.20631,2.58417-5.79951,5.21429-.30011,.49542-.56771,1.03503-.81826,1.59436,.70653-5.02893,2.11607-9.76099,4.14754-13.70258,.74926-1.45374-.50981-3.58472-1.26403-2.12134v.00006c-3.22047,1.67316-4.57731,5.58527-5.0952,10.2171-.64016-1.65887-1.42743-3.15601-2.34555-4.40161-.37507-.50885-.89736-.61536-1.26403,0-.31361,.52631-.37732,1.60938,0,2.12134-1.38531,7.27887,2.19124,9.53369,3.42624,13.1579,.02757,.80359,.05724,1.59705,.08474,2.37177,.02724,.76843,.31892,1.2262,.65842,1.38257,.16446,.42822,.46119,.72369,.76334,.72369,.5064,0,.86674-.68787,.89379-1.5,.09929-2.97925,.40435-8.15302,2.17331-7.87848,3.76807,.58478,3.94239-2.4632,4.91441-4.28619,.76465-1.43408,.62761-3.46887-.47523-2.89288Z" fill="#e6e6e6"/><path d="M514.99847,439.92346c2.10236,1.09814,4.20631,2.58417,5.79951,5.21429,.30011,.49542,.56771,1.03503,.81826,1.59436-.70653-5.02893-2.11607-9.76099-4.14754-13.70258-.74926-1.45374,.50981-3.58472,1.26403-2.12134v.00006c3.22047,1.67316,4.57731,5.58527,5.0952,10.2171,.64016-1.65887,1.42743-3.15601,2.34555-4.40161,.37507-.50885,.89736-.61536,1.26403,0,.31361,.52631,.37732,1.60938,0,2.12134,1.38531,7.27887-2.19124,9.53369-3.42624,13.1579-.02757,.80359-.05724,1.59705-.08474,2.37177-.02724,.76843-.31892,1.2262-.65842,1.38257-.16446,.42822-.46119,.72369-.76334,.72369-.5064,0-.86674-.68787-.89379-1.5-.09929-2.97925-.40435-8.15302-2.17331-7.87848-3.76807,.58478-3.94239-2.4632-4.91441-4.28619-.76465-1.43408-.62761-3.46887,.47523-2.89288Z" fill="#e6e6e6"/><path d="M167.19191,455.98619c0,.66003,.53003,1.19,1.19006,1.19h403.28998c.65997,0,1.19-.52997,1.19-1.19,0-.65997-.53003-1.19-1.19-1.19H168.38197c-.66003,0-1.19006,.53003-1.19006,1.19Z" fill="#ccc"/><g><path d="M217.91365,457.17619H41.48886c-21.51191,0-39.01333-17.50142-39.01333-39.01374V39.01333C2.47552,17.50142,19.97694,0,41.48886,0H217.91365c21.51151,0,39.01293,17.50142,39.01293,39.01333V418.16245c0,21.51232-17.50142,39.01374-39.01293,39.01374Z" fill="#3f3d56"/><path d="M256.92674,139.4635c-.91025,0-1.65045,.74021-1.65045,1.65045v52.81453c0,.91025,.74021,1.65045,1.65045,1.65045s1.65045-.74021,1.65045-1.65045v-52.81453c0-.91025-.74021-1.65045-1.65045-1.65045Z" fill="#3f3d56"/><path d="M253.21342,39.01362V418.15594c0,18.7244-14.57349,34.04062-33.00082,35.22894h-.00826c-.27234,.01652-.54463,.03304-.82523,.0413-.48691,.02473-.97376,.03299-1.46888,.03299,0,0-1.81551-.13206-5.13294-.37962-3.35042-.24756-8.22749-.61892-14.30946-1.10578-1.82372-.14032-3.74651-.29712-5.77659-.46213-4.04358-.33011-8.48331-.69321-13.24488-1.10583-1.89801-.1568-3.86206-.33006-5.86735-.50338-10.24931-.883-21.72824-1.91453-33.83431-3.08634-2.04655-.18984-4.10961-.38788-6.1892-.59419-.54463-.05777-1.09757-.10728-1.65045-.16506-8.63189-.84996-125.71564-23.47767-125.71564-27.90092V39.01362C6.1894,19.51355,21.99252,3.71043,41.49263,3.71043h21.07628c3.36694,0,6.07366,2.62422,6.36252,5.9829,.02473,.22283,.04951,.4456,.09076,.66843,.61066,3.3752,3.70526,5.72708,7.13818,5.72708h107.08205c3.43292,0,6.52752-2.35188,7.13818-5.72708,.04125-.22283,.06603-.4456,.09081-.66843,.28881-3.35868,2.99553-5.9829,6.36247-5.9829h21.07633c19.50007,0,35.30319,15.80312,35.30319,35.30319Z" fill="#fff"/><path d="M1.65045,99.8526c-.91025,0-1.65045,.74021-1.65045,1.65045v13.20363c0,.91025,.74021,1.65045,1.65045,1.65045s1.65045-.74021,1.65045-1.65045v-13.20363c0-.91025-.74021-1.65045-1.65045-1.65045Z" fill="#3f3d56"/><path d="M1.65045,139.4635c-.91025,0-1.65045,.74021-1.65045,1.65045v25.58204c0,.91025,.74021,1.65045,1.65045,1.65045s1.65045-.74021,1.65045-1.65045v-25.58204c0-.91025-.74021-1.65045-1.65045-1.65045Z" fill="#3f3d56"/><path d="M1.65045,175.77349c-.91025,0-1.65045,.74021-1.65045,1.65045v25.58204c0,.91025,.74021,1.65045,1.65045,1.65045s1.65045-.74021,1.65045-1.65045v-25.58204c0-.91025-.74021-1.65045-1.65045-1.65045Z" fill="#3f3d56"/><rect x="30.12079" y="9.49024" width="32.18385" height="4.12614" rx=".31021" ry=".31021" fill="#e6e6e6"/><circle cx="202.04914" cy="10.31547" r="3.30091" fill="#e6e6e6"/><circle cx="211.12664" cy="10.31547" r="3.30091" fill="#e6e6e6"/><circle cx="220.20414" cy="10.31547" r="3.30091" fill="#e6e6e6"/></g><g><g><polygon points="244.28861 435.57554 251.90548 433.65739 246.70386 398.49123 235.46309 401.32116 244.28861 435.57554" fill="#ffb6b6"/><path d="M274.62571,444.16981h0c.35421,1.27839-.26586,2.56609-1.38496,2.87616l-15.0206,4.16181s-3.12444-5.53222-9.85963-6.41948l1.93885,8.61412-7.7486,2.14693-2.84759-13.9259s-4.09855-6.73692-.82928-11.66695c3.26927-4.93003-.07329-3.4437-.07329-3.4437l-.65007-8.92729,12.09049-1.86735,3.76486,13.25337,9.33382,11.60445,9.4753,1.80784c.84333,.1609,1.55491,.86277,1.81071,1.78599Z" fill="#2f2e41"/></g><g><polygon points="171.33683 429.46477 178.68032 432.25213 194.54555 400.44003 183.70872 396.32584 171.33683 429.46477" fill="#ffb6b6"/><path d="M191.29211,453.87764h0c-.44136,1.25098-1.68691,1.95188-2.78201,1.56551l-14.69852-5.18583s.60494-6.32469-4.40968-10.90765l-3.34126,8.17302-7.58244-2.67518,5.63677-13.04861s.49583-7.87009,5.99859-10.04103,1.91119-2.86562,1.91119-2.86562l4.57726-7.69206,10.98254,5.38987-4.49968,13.02224,1.01048,14.85808,6.73441,6.90632c.59938,.61468,.78107,1.59752,.46233,2.50093Z" fill="#2f2e41"/></g><path d="M203.22069,114.95674h-38.97219c.05714-1.82865-.33332-3.6573-1.13336-5.2954-.01907,1.81912-.42859,3.63823-1.18097,5.2954h-1.77145c-2.70484,0-4.90488-2.2001-4.90488-4.90488v-25.32428c0-12.40027,9.74303-22.6195,22.12423-23.20998,.37145-.01907,.73337-.0286,1.10482-.0286,10.08588,0,19.09561,6.54298,22.16231,16.23835,4.50489-2.07617,7.20014,9.72408,8.99066,28.46736,1.36198,4.34288-1.8762,8.76203-6.41917,8.76203Z" fill="#2f2e41"/><path d="M279.69664,259.74189c1.93187,4.58009,1.13522,9.28954-1.77938,10.51892-2.9146,1.22937-6.84341-1.4869-8.77528-6.06698-.84565-2.00486-1.16836-4.03448-1.01959-5.78618l-7.94241-19.50982,9.23481-3.53218,6.8495,19.60776c1.35836,1.11599,2.5867,2.76362,3.43235,4.76848Z" fill="#ffb6b6"/><path d="M194.30624,106.38514l-18.6283,3.89679,2.8572,8.5716-5.7144,65.55811,9.524,21.11028,58.0964-4.762-14.286-28.572s5.7144-23.81-1.9048-28.572-20.0004-28.572-20.0004-28.572l-9.9437-8.65879Z" fill="#6c63ff"/><path d="M176.94156,114.07278l-16.50202,6.68555,5.7144,83.8112-12.3812,72.3824,40.0008,6.6668s-4.762-160.00319-7.6192-162.86039-9.21278-6.68555-9.21278-6.68555Z" fill="#2f2e41"/><path d="M209.26217,124.52826s10.73783-6.79387,16.53919-1.76361c5.80136,5.03026,50.46697,126.62671,50.46697,126.62671l-12.0476,5.23469-27.62934-57.93132-27.32923-72.16647Z" fill="#2f2e41"/><path d="M240.02208,329.40065l10.89546,83.74446-15.2384,.9524s-7.92397-21.61943-16.96224-47.0866c-1.92387-5.40015-3.89534-10.97167-5.84775-16.55283-2.1143-6.05713-4.21912-12.1145-6.21914-17.96213-4.94296-14.41947-9.27637-27.54356-11.75264-36.11516-.42859-1.50463-.80952-2.86662-1.12382-4.06665-6.6668-25.60052-10.4764-92.50661-10.4764-92.50661l55.2392-4.762,.59048,.73337,11.79072,14.7336-.55241,3.11437-14.68599,82.37306,4.34294,33.40073Z" fill="#2f2e41"/><path d="M235.67914,295.99992l4.34294,33.40073-19.53373,34.39103-1.77145,3.21923-26.89577,48.87711-13.28599-7.53352s17.28608-39.72456,28.11487-75.85856c1.20003-3.97167,2.31432-7.90497,3.31433-11.73363,2.94294-11.20977-1.8762-31.6673,.00953-37.30555,6.37156-19.02893,27.13387-57.09633,36.77215-74.34428l3.61911,4.51437-14.68599,82.37306Z" fill="#2f2e41"/><polygon points="204.00847 114.31951 223.29794 121.71073 273.77514 269.33272 243.29834 274.09472 229.01234 188.37873 204.00847 114.31951" fill="#2f2e41"/><path d="M155.78097,273.66572c-.49097,4.94654-3.44075,8.70319-6.58855,8.39076s-5.30156-4.57564-4.81059-9.52218c.21491-2.16527,.90105-4.10246,1.86862-5.57025l2.34334-20.93379,9.80025,1.30888-3.35025,20.4977c.66016,1.62935,.95211,3.66362,.73719,5.82889Z" fill="#ffb6b6"/><path d="M167.10634,120.75833s-12.3812-2.8572-16.1908,3.8096c-3.8096,6.6668-5.7144,136.19319-5.7144,136.19319l13.10112,.9524,6.89928-63.8108,1.9048-77.1444Z" fill="#2f2e41"/><circle cx="182.90744" cy="84.27746" r="19.79792" fill="#ffb6b6"/><path d="M207.76031,82.57514s-9.64447-2.8572-15.41886,0c-8.02465,3.97064-28.51201,0-28.51201,0v-8.94985c0-5.22486,3.89061-9.63207,9.07512-10.28014l14.78452-1.84806c11.60512-1.45064,21.85556,7.59826,21.85556,19.2937v.00002c0,.98546-.79887,1.78433-1.78433,1.78433Z" fill="#2f2e41"/><path d="M186.68704,114.95674h-22.43854c.05714-1.82865-.33332-3.6573-1.13336-5.2954-.01907,1.81912-.42859,3.63823-1.18097,5.2954h-.96193v-40.0008h17.1432l8.5716,40.0008Z" fill="#2f2e41"/></g></svg>